<?xml version="1.0" encoding="utf-8"?>
<!-- Generator: Adobe Illustrator 19.1.0, SVG Export Plug-In . SVG Version: 6.00 Build 0)  -->
<svg version="1.1" id="Layer_1" xmlns="http://www.w3.org/2000/svg" xmlns:xlink="http://www.w3.org/1999/xlink" x="0px" y="0px"
	 viewBox="-371 273.3 72.7 72.7" style="enable-background:new -371 273.3 72.7 72.7;" xml:space="preserve">
<style type="text/css">
	.st0{clip-path:url(#SVGID_2_);fill:#F7B334;}
	.st1{clip-path:url(#SVGID_4_);fill:#F7B334;}
	.st2{clip-path:url(#SVGID_6_);fill:#F7B334;}
</style>
<g>
	<g>
		<defs>
			<rect id="SVGID_1_" x="-371" y="273.3" width="72.3" height="72.3"/>
		</defs>
		<clipPath id="SVGID_2_">
			<use xlink:href="#SVGID_1_"  style="overflow:visible;"/>
		</clipPath>
		<path class="st0" d="M-334.7,343.5c-18.7,0-34.1-15.2-34.1-34.1c0-18.7,15.2-33.9,34.1-33.9c18.7,0,33.9,15.2,33.9,33.9
			C-300.8,328.3-316,343.5-334.7,343.5 M-334.7,273.3c-20,0-36.3,16.2-36.3,36.1c0,20,16.2,36.3,36.3,36.3c20,0,36.1-16.2,36.1-36.1
			C-298.6,289.6-314.8,273.3-334.7,273.3"/>
	</g>
	<g>
		<defs>
			<rect id="SVGID_3_" x="-371" y="273.3" width="72.3" height="72.3"/>
		</defs>
		<clipPath id="SVGID_4_">
			<use xlink:href="#SVGID_3_"  style="overflow:visible;"/>
		</clipPath>
		<path class="st1" d="M-344.8,323.4l0.6-6.8l0,0c0.1,0.5,0.3,1.2,0.4,1.7c0,0.1,0,0.3,0.1,0.4L-344.8,323.4z M-323.2,323.4l0.3-5.5
			c0.3,0.1,0.5,0.4,0.6,0.5L-323.2,323.4z M-308.8,307.1c-1.8,0-6-0.5-6.8-5.1l0,0l0,0c-1.2-4.5-3.1-5.1-7-5.1h-19.9
			c-0.3,0-0.5,0.1-0.6,0.3l0,0l0,0c-0.9,1-2.7,1.6-4.5,1.6c-0.5,0-0.9,0-1.3-0.1c-0.1-0.6-0.4-1.3-0.9-1.6c-0.3-0.3-0.6-0.3-1.2-0.3
			c-0.1,0-0.3,0-0.5,0c-0.1,0-0.3,0.1-0.4,0.1c-0.6-0.5-1.3-0.8-1.9-0.8c-0.6,0-1,0.1-1.6,0.4c-0.1-0.1-0.4-0.4-0.6-1.2
			c-0.1-0.4-0.5-0.6-0.9-0.6l0,0c-0.4,0-0.8,0.3-0.9,0.6c0,0.1-0.5,1.3-0.5,2.7c-0.1-0.1-0.3-0.3-0.4-0.4c-0.1-0.3-0.3-0.4-0.6-0.4
			c-0.3,0-0.4,0.1-0.5,0.4c0,0-0.5,2.1,1,3.2c-0.1,0.1-0.1,0.3-0.1,0.5c0,0.4,0,0.6,0,0.9c0,0.1,0,0.3,0,0.4s-0.3,0.9-3,3.4
			l-0.1,0.1c-0.5,0.5-0.5,1.3-0.1,1.8l1.4,2.2c0.1,0.3,0.5,0.4,0.8,0.4c0.1,0,0.1,0,0.3,0l2.3-0.5c0.9,0.3,2.1,0.6,3.1,0.6
			c0.1,0,0.3,0,0.4,0c0.1,0,0.3,0,0.4,0h0.1c0.4,0,0.6-0.1,1-0.1c0.3,0,0.4,0,0.5,0.1c0.8,0.3,1.2,0.9,1.7,1.7
			c0.4,0.5,0.8,1.2,1.3,1.7c0.8,0.8,1.8,1.4,2.9,1.8l-1,10c0,0.3,0,0.5,0.3,0.8c0.1,0.3,0.4,0.4,0.8,0.4h1.7c0.4,0,0.9-0.3,0.9-0.8
			l0.9-3.5l0.8,3.2c0.1,0.4,0.5,0.8,0.9,0.8h2.6c0.3,0,0.5-0.1,0.6-0.3c0.4-0.3,0.5-0.5,0.5-0.8l-0.3-9.1c1.3,0.1,2.7,0.3,4.3,0.3
			c3.1,0,6.1-0.4,8.3-0.8l-0.5,9.5c0,0.3,0.1,0.5,0.3,0.8c0.1,0.1,0.4,0.3,0.6,0.3h1.7c0.5,0,0.9-0.4,0.9-0.8l1.3-7h0.1l1,6.9
			c0.1,0.5,0.5,0.8,1,0.8h2.9c0.3,0,0.5-0.1,0.8-0.3s0.3-0.5,0.3-0.8l-0.6-7.1l-0.8-10.1c0-0.5-0.5-0.9-1-0.9l0,0
			c-0.3,0-0.5,0.1-0.6,0.4s-0.3,0.5-0.3,0.8l0.8,10.1l0.5,6.1h-1l-0.9-6.5c0-0.4-0.4-0.8-0.8-0.8c-4.3-0.9-4.5-4.7-4.5-4.8
			c0-0.5-0.5-0.9-1-0.9c-0.5,0-0.9,0.5-0.9,1c0,0,0,0.6,0.4,1.6c-2.1,0.4-4.8,0.8-7.8,0.8c-1.6,0-3-0.1-4.4-0.3v-0.6l0,0l0,0
			c0-0.1,0-0.6,0.3-0.9c0-0.3,0.1-0.3,0.4-0.3c0.5,0,1-0.4,1-1c0-0.5-0.4-1-1-1c-1,0-1.6,0.4-1.9,0.8c-0.8,0.9-0.8,2.1-0.8,2.3
			l0.4,10.7h-0.8l-2.2-9c0-0.1-0.1-0.3-0.1-0.4l0,0c0-0.1,0-0.1,0-0.3l0,0l0,0c-0.3-0.9-0.5-1.7-0.8-2.5c-0.1-0.4-0.4-0.6-0.5-1
			c-1-1.9-1.9-3.8-0.8-5.2c0.1-0.3,0.3-0.5,0.3-0.8s-0.1-0.5-0.4-0.6c-0.1-0.1-0.4-0.3-0.6-0.3s-0.5,0.1-0.8,0.4
			c-2.1,2.5-0.6,5.2,0.5,7.4c0.1,0.4,0.4,0.6,0.5,0.9c0.1,0.1,0.1,0.4,0.3,0.5c-1-0.3-1.9-0.8-2.7-1.6c-0.4-0.4-0.6-0.8-0.9-1.3
			c-0.6-1-1.3-2.1-2.7-2.5c-0.4-0.1-0.6-0.1-1.2-0.1c-0.4,0-0.9,0-1.3,0.1c-0.1,0-0.3,0-0.5,0c-0.1,0-0.1,0-0.3,0
			c-0.8,0-1.7-0.4-2.5-0.6l-0.3-0.1c-0.1,0-0.3,0-0.3,0c-0.1,0-0.1,0-0.3,0l-1.9,0.4l-0.8-1.3c1.9-1.8,3.4-3.2,3.5-4.4
			c0-0.3,0-0.5,0-0.8c0-0.1,0-0.3,0-0.3l0.1-0.1l0,0c0.4-0.3,0.9-0.5,1.3-1l0,0l0,0c0,0,0,0,0-0.1c0,0,0,0,0-0.1v-0.1c0,0,0,0,0-0.1
			v-0.1c0,0,0,0,0-0.1v-0.1c0,0,0,0,0-0.1l0,0c0,0,0,0,0-0.1c0,0,0,0,0-0.1c0,0,0,0,0-0.1c0,0,0,0,0-0.1c0,0,0,0,0-0.1
			c0,0,0,0,0-0.1c0,0,0,0-0.1,0l0,0l0,0l0,0c-0.3-0.1-0.5-0.5-0.5-0.9c0.5,0.4,0.9,0.4,1,0.4l0,0c0,0,0,0,0.1,0
			c0.3,0,0.5-0.1,0.6-0.3c0,0,0.3-0.3,0.5-0.3c0.1,0,0.3,0,0.4,0.1c-0.1,0.3-0.1,0.4-0.1,0.6s0.3,0.5,0.4,0.6s0.4,0.1,0.5,0.1
			c0.4,0,0.6-0.1,0.8-0.4s0.5-0.5,0.6-0.5c0,0,0,0,0.1,0l0,0c0,0,0.1,0.1,0,0.4c0,0,0,0,0,0.1s-0.1,0.3-0.3,0.5
			c-0.1,0.6-0.3,0.9-0.1,1.2c0,0.3,0.3,0.5,0.4,0.6s0.4,0.1,0.5,0.1c0.4,0,0.6-0.1,0.8-0.4c0,0,0-0.1,0.1-0.1
			c0.5,0.1,1.2,0.3,1.8,0.3c2.1,0,4.2-0.8,5.6-1.9h19.5c3.5,0,4.3,0.3,5.1,3.5l0,0c0.8,4.2,3.9,6.6,8.7,6.6c0.5,0,1-0.4,1-1
			C-307.8,307.7-308.3,307.1-308.8,307.1"/>
	</g>
	<g>
		<defs>
			<rect id="SVGID_5_" x="-371" y="273.3" width="72.3" height="72.3"/>
		</defs>
		<clipPath id="SVGID_6_">
			<use xlink:href="#SVGID_5_"  style="overflow:visible;"/>
		</clipPath>
		<path class="st2" d="M-355.2,301.9c-0.4,0-0.8,0.4-0.8,0.8s0.4,0.8,0.8,0.8s0.8-0.4,0.8-0.8S-354.8,301.9-355.2,301.9"/>
	</g>
</g>
</svg>
