<?xml version="1.0" encoding="utf-8"?>
<!-- Generator: Adobe Illustrator 19.1.0, SVG Export Plug-In . SVG Version: 6.00 Build 0)  -->
<svg version="1.1" id="Layer_1" xmlns="http://www.w3.org/2000/svg" xmlns:xlink="http://www.w3.org/1999/xlink" x="0px" y="0px"
	 viewBox="-371 273.3 55.7 55.7" style="enable-background:new -371 273.3 55.7 55.7;" xml:space="preserve">
<style type="text/css">
	.st0{clip-path:url(#SVGID_2_);fill:#F7B334;}
	.st1{clip-path:url(#SVGID_4_);fill:#F7B334;}
	.st2{clip-path:url(#SVGID_6_);fill:#F7B334;}
</style>
<g>
	<g>
		<defs>
			<rect id="SVGID_1_" x="-371" y="273.2" width="55.8" height="55.8"/>
		</defs>
		<clipPath id="SVGID_2_">
			<use xlink:href="#SVGID_1_"  style="overflow:visible;"/>
		</clipPath>
		<path class="st0" d="M-343,327.4c-14.5,0-26.3-11.8-26.3-26.3s11.8-26.3,26.3-26.3s26.3,11.8,26.3,26.3
			C-316.9,315.6-328.6,327.4-343,327.4 M-343,273.2c-15.4,0-27.9,12.5-27.9,27.9S-358.5,329-343,329c15.4,0,27.9-12.5,27.9-27.9
			C-315.1,285.8-327.8,273.2-343,273.2"/>
	</g>
	<g>
		<defs>
			<rect id="SVGID_3_" x="-371" y="273.2" width="55.8" height="55.8"/>
		</defs>
		<clipPath id="SVGID_4_">
			<use xlink:href="#SVGID_3_"  style="overflow:visible;"/>
		</clipPath>
		<path class="st1" d="M-335.8,284c-0.1,0-0.2,0-0.3,0c-0.3,0-0.6,0.2-0.8,0.5c-0.2,0.4,0,0.9,0.4,1.1c6.3,2.7,10.4,8.9,10.4,15.7
			c0,9.4-7.7,17.1-17.1,17.1s-17.1-7.7-17.1-17.1c0-6.9,4.1-13,10.4-15.7c0.4-0.2,0.6-0.7,0.5-1.1c-0.2-0.3-0.5-0.5-0.9-0.5
			c-0.1,0-0.2,0-0.3,0.1c-6.9,2.9-11.4,9.7-11.4,17.2c0,10.4,8.4,18.8,18.8,18.8s18.8-8.4,18.8-18.8
			C-324.4,293.8-328.9,287-335.8,284"/>
	</g>
	<g>
		<defs>
			<rect id="SVGID_5_" x="-371" y="273.2" width="55.8" height="55.8"/>
		</defs>
		<clipPath id="SVGID_6_">
			<use xlink:href="#SVGID_5_"  style="overflow:visible;"/>
		</clipPath>
		<path class="st2" d="M-343.1,299.9c0.5,0,0.8-0.4,0.8-0.8v-18.6c0-0.5-0.4-0.8-0.8-0.8c-0.5,0-0.8,0.4-0.8,0.8V299
			C-344,299.5-343.6,299.9-343.1,299.9"/>
	</g>
</g>
</svg>
