<?xml version="1.0" encoding="utf-8"?>
<!-- Generator: Adobe Illustrator 19.1.0, SVG Export Plug-In . SVG Version: 6.00 Build 0)  -->
<svg version="1.1" id="Layer_1" xmlns="http://www.w3.org/2000/svg" xmlns:xlink="http://www.w3.org/1999/xlink" x="0px" y="0px"
	 viewBox="0 0 55.7 55.7" style="enable-background:new 0 0 55.7 55.7;" xml:space="preserve">
<style type="text/css">
	.st0{clip-path:url(#SVGID_2_);fill:#F7323F;}
</style>
<g>
	<defs>
		<rect id="SVGID_1_" x="0.1" y="0" width="55.6" height="55.6"/>
	</defs>
	<clipPath id="SVGID_2_">
		<use xlink:href="#SVGID_1_"  style="overflow:visible;"/>
	</clipPath>
	<path class="st0" d="M26.5,12.8h-0.7c-0.4,0-0.7,0.3-0.7,0.7c0,0.4,0.3,0.7,0.7,0.7h1.4V15h-1.4c-0.4,0-0.7,0.3-0.7,0.7
		c0,0.4,0.3,0.7,0.7,0.7h1.4v0.8c0,0.4,0.3,0.7,0.7,0.7c0.4,0,0.7-0.3,0.7-0.7v-0.8H30c0.4,0,0.7-0.3,0.7-0.7c0-0.4-0.3-0.7-0.7-0.7
		h-1.4v-0.8H30c0.4,0,0.7-0.3,0.7-0.7c0-0.4-0.3-0.7-0.7-0.7h-0.7l2.4-3.3c0.2-0.3,0.2-0.7-0.1-1c-0.1-0.1-0.3-0.1-0.4-0.1
		c-0.2,0-0.4,0.1-0.6,0.3l-2.7,3.7l-2.7-3.7c-0.1-0.2-0.3-0.3-0.6-0.3c-0.1,0-0.3,0-0.4,0.1c-0.3,0.2-0.4,0.7-0.1,1L26.5,12.8z"/>
	<path class="st0" d="M18.5,38.8h-3.7v-2.7h2c0.4,0,0.7-0.3,0.7-0.7c0-0.4-0.3-0.7-0.7-0.7h-2v-1.2c0,0,0-0.9,0.5-1.4
		c0.2-0.2,0.5-0.3,0.9-0.3c0.1,0,0.1,0,0.1,0c0.1,0,0.8,0,1,0.4c0.1,0.2,0.4,0.4,0.7,0.4c0.1,0,0.2,0,0.3-0.1
		c0.2-0.1,0.3-0.2,0.4-0.4c0.1-0.2,0-0.4,0-0.6c-0.6-1.1-1.8-1.2-2.3-1.2l-0.1,0c-0.8,0-1.4,0.3-1.9,0.8c-0.9,0.9-0.9,2.2-0.9,2.4
		v1.2h-1c-0.4,0-0.7,0.3-0.7,0.7c0,0.4,0.3,0.7,0.7,0.7h1v2.7h-1c-0.4,0-0.7,0.3-0.7,0.7c0,0.4,0.3,0.7,0.7,0.7h6.1
		c0.4,0,0.7-0.3,0.7-0.7C19.2,39.1,18.9,38.8,18.5,38.8"/>
	<path class="st0" d="M41.9,37.8c-0.3,0.2-0.6,0.4-1,0.5v-2.1c1.2,0.2,1.2,0.9,1.2,0.9C42.2,37.4,42.1,37.6,41.9,37.8 M38.3,33.7
		c0-0.3,0.1-0.5,0.3-0.7c0.2-0.2,0.5-0.3,1-0.4v2.1C38.4,34.4,38.3,33.7,38.3,33.7 M41,34.7v-2.2c0.5,0.1,0.9,0.3,1.1,0.6
		c0.1,0.2,0.4,0.4,0.6,0.4c0.1,0,0.2,0,0.4-0.1c0.3-0.2,0.5-0.6,0.3-1c-0.6-1-1.7-1.3-2.4-1.4v-0.5c0-0.4-0.3-0.7-0.7-0.7
		c-0.4,0-0.7,0.3-0.7,0.7v0.5c-0.6,0.1-1.4,0.3-2,0.9c-0.5,0.5-0.7,1-0.7,1.7c0,0,0,2,2.7,2.4v2.2c-0.4-0.1-0.9-0.3-1.1-0.6
		c-0.1-0.2-0.4-0.4-0.6-0.4c-0.1,0-0.2,0-0.3,0.1c-0.2,0.1-0.3,0.2-0.3,0.4c-0.1,0.2,0,0.4,0.1,0.5c0.5,1,1.7,1.3,2.4,1.4v0.4
		c0,0.4,0.3,0.7,0.7,0.7c0.4,0,0.7-0.3,0.7-0.7v-0.4c0.6-0.1,1.4-0.3,2-0.9c0.5-0.5,0.7-1,0.7-1.7C43.7,37.1,43.6,35.1,41,34.7"/>
	<path class="st0" d="M28.7,54V28.3l22.4-12.4c1.8,3.6,2.9,7.6,2.9,11.9C54,42,42.7,53.5,28.7,54 M1.7,27.8c0-4.3,1-8.4,2.9-11.9
		L27,28.3V54C13,53.5,1.7,42,1.7,27.8 M27.8,1.7c9.5,0,17.9,5.1,22.5,12.8L27.9,26.9L5.4,14.5C10,6.8,18.3,1.7,27.8,1.7 M55.6,27.8
		c0-4.8-1.2-9.4-3.4-13.4c0,0,0-0.1,0-0.1c0,0-0.1-0.1-0.1-0.1C47.3,5.8,38.2,0,27.8,0C17.5,0,8.4,5.8,3.6,14.2c0,0-0.1,0.1-0.1,0.1
		c0,0,0,0.1,0,0.1c-2.2,4-3.4,8.5-3.4,13.4c0,15.3,12.4,27.7,27.6,27.8c0.1,0,0.1,0,0.2,0c0.1,0,0.1,0,0.2,0
		C43.3,55.5,55.6,43.1,55.6,27.8"/>
</g>
</svg>
