<?xml version="1.0" encoding="utf-8"?>
<!-- Generator: Adobe Illustrator 19.1.0, SVG Export Plug-In . SVG Version: 6.00 Build 0)  -->
<svg version="1.1" id="Layer_1" xmlns="http://www.w3.org/2000/svg" xmlns:xlink="http://www.w3.org/1999/xlink" x="0px" y="0px"
	 viewBox="0 0 55.7 55.7" style="enable-background:new 0 0 55.7 55.7;" xml:space="preserve">
<style type="text/css">
	.st0{clip-path:url(#SVGID_2_);fill:#00A1DF;}
</style>
<g>
	<defs>
		<rect id="SVGID_1_" y="0" width="55.7" height="55.7"/>
	</defs>
	<clipPath id="SVGID_2_">
		<use xlink:href="#SVGID_1_"  style="overflow:visible;"/>
	</clipPath>
	<path class="st0" d="M27.8,54C13.4,54,1.6,42.3,1.6,27.8S13.4,1.6,27.8,1.6S54,13.4,54,27.8S42.3,54,27.8,54 M27.8,0
		C12.5,0,0,12.5,0,27.8s12.5,27.8,27.8,27.8s27.8-12.5,27.8-27.8S43.2,0,27.8,0"/>
	<path class="st0" d="M31.6,4.8c-0.1-0.1-0.3-0.1-0.4-0.1c-0.2,0-0.4,0.1-0.6,0.3l-2.7,3.7l-2.7-3.7c-0.1-0.2-0.3-0.3-0.6-0.3
		c-0.1,0-0.3,0-0.4,0.1c-0.3,0.2-0.4,0.7-0.1,1L26.5,9h-0.7C25.4,9,25,9.4,25,9.7c0,0.4,0.3,0.7,0.7,0.7h1.4v0.9h-1.4
		c-0.4,0-0.7,0.3-0.7,0.7c0,0.4,0.3,0.7,0.7,0.7h1.4v0.8c0,0.4,0.3,0.7,0.7,0.7c0.4,0,0.7-0.3,0.7-0.7v-0.8H30
		c0.4,0,0.7-0.3,0.7-0.7c0-0.4-0.3-0.7-0.7-0.7h-1.4v-0.9H30c0.4,0,0.7-0.3,0.7-0.7C30.7,9.4,30.4,9,30,9h-0.7l2.4-3.3
		C32,5.4,31.9,5,31.6,4.8"/>
	<path class="st0" d="M51.2,29.1l-4.3-4.3c0,0,0,0,0,0c-0.2-0.2-0.4-0.2-0.6-0.2c-0.2,0-0.4,0.1-0.6,0.2c0,0,0,0,0,0l-4.3,4.3
		c-0.3,0.3-0.3,0.8,0,1.2c0.2,0.2,0.4,0.2,0.6,0.2c0.2,0,0.4-0.1,0.6-0.2l3.1-3.1c0,0.2,0,0.5,0,0.7c0,7.3-4.4,13.5-10.7,16.3l0,0
		c-0.4,0.1-0.6,0.4-0.6,0.8c0,0.5,0.4,0.8,0.8,0.8c0.1,0,0.2,0,0.2,0l0,0c0,0,0,0,0,0c0,0,0.1,0,0.1-0.1c6.9-3,11.7-9.8,11.7-17.8
		c0-0.1,0-0.2,0-0.4l2.8,2.8c0.2,0.2,0.4,0.2,0.6,0.2c0.2,0,0.4-0.1,0.6-0.2C51.5,29.9,51.5,29.4,51.2,29.1"/>
	<path class="st0" d="M13.5,31.3c0-0.4-0.3-0.7-0.7-0.7H9.1v-2.7h2c0.4,0,0.7-0.3,0.7-0.7c0-0.4-0.3-0.7-0.7-0.7h-2v-1.2
		c0,0,0-0.9,0.5-1.4c0.2-0.2,0.5-0.3,0.9-0.3c0.1,0,0.1,0,0.1,0c0.1,0,0.8,0,1,0.5c0.1,0.2,0.4,0.4,0.7,0.4c0.1,0,0.2,0,0.3-0.1
		c0.2-0.1,0.3-0.2,0.4-0.4c0.1-0.2,0-0.4,0-0.6C12.3,22.2,11,22,10.5,22l-0.1,0c-0.8,0-1.4,0.3-1.9,0.8c-0.9,0.9-0.9,2.2-0.9,2.4
		v1.2h-1c-0.4,0-0.7,0.3-0.7,0.7c0,0.4,0.3,0.7,0.7,0.7h1v2.7h-1c-0.4,0-0.7,0.3-0.7,0.7c0,0.4,0.3,0.7,0.7,0.7h6.1
		C13.1,32,13.5,31.7,13.5,31.3"/>
	<path class="st0" d="M29.5,49.1c-0.3,0.3-0.6,0.4-1,0.5v-2.1c1.2,0.2,1.2,0.9,1.2,0.9C29.7,48.7,29.7,48.9,29.5,49.1 M25.8,44.9
		c0-0.3,0.1-0.5,0.3-0.7c0.2-0.2,0.5-0.3,1-0.4v2.1C25.9,45.6,25.8,45,25.8,44.9 M28.5,46v-2.2c0.5,0.1,0.9,0.3,1.1,0.6
		c0.1,0.2,0.4,0.4,0.6,0.4c0.1,0,0.2,0,0.4-0.1c0.3-0.2,0.5-0.6,0.3-1c-0.6-1-1.7-1.3-2.4-1.4v-0.5c0-0.4-0.3-0.7-0.7-0.7
		c-0.4,0-0.7,0.3-0.7,0.7v0.5c-0.6,0.1-1.4,0.3-2,0.9c-0.5,0.5-0.7,1-0.7,1.7c0,0,0,2,2.7,2.4v2.2c-0.5-0.1-0.9-0.3-1.1-0.6
		c-0.1-0.2-0.4-0.4-0.6-0.4c-0.1,0-0.2,0-0.3,0.1c-0.2,0.1-0.3,0.3-0.3,0.4c-0.1,0.2,0,0.4,0.1,0.5c0.5,1,1.7,1.3,2.4,1.4v0.4
		c0,0.4,0.3,0.7,0.7,0.7c0.4,0,0.7-0.3,0.7-0.7V51c0.6-0.1,1.4-0.3,2-0.9c0.5-0.5,0.7-1,0.7-1.7C31.2,48.4,31.1,46.4,28.5,46"/>
	<path class="st0" d="M21,9.7c-0.1,0-0.3,0-0.4,0.1c-3.9,1.5-7.1,4.3-9.3,7.8c0,0,0,0,0,0c0,0,0,0,0,0.1l0,0
		c-0.1,0.1-0.1,0.2-0.1,0.4c0,0.5,0.4,0.8,0.8,0.8c0.4,0,0.7-0.2,0.8-0.5c2-3.1,4.9-5.6,8.4-7c0.4-0.1,0.6-0.4,0.6-0.8
		C21.8,10.1,21.5,9.7,21,9.7"/>
	<path class="st0" d="M20.6,44c-3.7-1.7-6.8-4.6-8.6-8.2c-0.1-0.3-0.4-0.5-0.8-0.5c-0.5,0-0.8,0.4-0.8,0.8c0,0.1,0,0.1,0,0.2l0,0
		c0,0,0,0,0,0c0,0.1,0.1,0.2,0.1,0.3c2,3.9,5.3,7.1,9.4,8.9c0.1,0,0.1,0.1,0.2,0.1c0,0,0,0,0,0l0,0c0.1,0,0.1,0,0.2,0
		c0.5,0,0.8-0.4,0.8-0.8C21.2,44.5,21,44.1,20.6,44"/>
</g>
</svg>
