<?xml version="1.0" encoding="utf-8"?>
<!-- Generator: Adobe Illustrator 19.1.0, SVG Export Plug-In . SVG Version: 6.00 Build 0)  -->
<svg version="1.1" id="Layer_1" xmlns="http://www.w3.org/2000/svg" xmlns:xlink="http://www.w3.org/1999/xlink" x="0px" y="0px"
	 viewBox="0 0 719.8 84.4" style="enable-background:new 0 0 719.8 84.4;" xml:space="preserve">
<style type="text/css">
	.st0{fill:#CC003D;}
</style>
<g>
	<path class="st0" d="M285.7,28.7c0-6.9,7.2-6.9,7.2-6.9h10.8H355V4.2h-51.3h-6.9c-30.7,0-30,24.1-30,24.1v9.3v45.5h19V56.9h59.4
		V39.3h-59.4v-1.7V28.7z"/>
	<path class="st0" d="M226.2,4.2h-6.9h0h-9.1h-0.5h-6.4c-9.6,0-16.1,2.3-20.5,5.5c-4.4-3.2-11-5.5-20.5-5.5h-5.5h-11h-6.9
		c-30.7,0-30,24.1-30,24.1v9.3v45.5h19V37.6v-9c0-6.9,7.2-6.9,7.2-6.9h10.8h11h9.4c0,0,7.2,0,7.2,6.9v9h0v45.5h19V37.6h0v-9
		c0-6.9,7.2-6.9,7.2-6.9h10.3h0.5h9.1h0H230c0,0,7.2,0,7.2,6.9v9v45.5h19V37.6v-9.3C256.2,28.3,256.9,4.2,226.2,4.2"/>
	<path class="st0" d="M98.7,52v-2.2V37.6v-9.3c0,0,0.7-24.1-30-24.1h-6.8h-0.1H36.9H30C-0.7,4.2,0,28.3,0,28.3v9.3v12.2V52v7.1
		c0,0-0.7,24.1,30,24.1h6.9h24.8h0.1h6.8c30.7,0,30-24.1,30-24.1V52z M79.7,58.8c0,6.9-7.2,6.9-7.2,6.9H61.8H36.9H26.2
		c0,0-7.2,0-7.2-6.9V52v-2.2V37.6v-9c0-6.9,7.2-6.9,7.2-6.9h10.8h24.8h0.1h10.6c0,0,7.2,0,7.2,6.9v9v12.2V52V58.8z"/>
	<path class="st0" d="M430.2,48.5c-0.6-11-1.3-24.4-1.3-34.1h-0.2c-2.8,9.1-6,19.1-10,30l-13.9,38.3h-7.7l-12.9-37.6
		c-3.7-11.2-6.8-21.3-9-30.7h-0.2c-0.2,9.8-0.8,23-1.5,34.9l-2.1,33.8h-9.7l5.5-78.9h13l13.5,38.2c3.3,9.7,5.9,18.4,8,26.6h0.2
		c2.1-8,4.9-16.6,8.4-26.6l14.1-38.2h13l4.9,78.9h-10.1L430.2,48.5z"/>
	<path class="st0" d="M485,54.2C473.8,54,461,56,461,67c0,6.8,4.4,9.8,9.6,9.8c7.5,0,12.3-4.7,13.9-9.5c0.4-1.2,0.5-2.3,0.5-3.3
		V54.2z M495,69.6c0,4.9,0.2,9.7,0.8,13.6h-9.2l-0.8-7.1h-0.4c-3.2,4.5-9.3,8.4-17.3,8.4c-11.5,0-17.3-8.1-17.3-16.3
		c0-13.7,12.2-21.2,34.1-21.1v-1.2c0-4.6-1.3-13.1-12.9-13c-5.4,0-10.9,1.5-14.9,4.2l-2.3-6.9c4.7-2.9,11.6-4.9,18.7-4.9
		c17.3,0,21.5,11.8,21.5,23.1V69.6z"/>
	<path class="st0" d="M507.7,44.1c0-6.7-0.1-12.4-0.5-17.7h9l0.5,11.2h0.4c2.6-7.6,8.9-12.4,15.8-12.4c1.1,0,1.9,0.1,2.8,0.2v9.7
		c-1.1-0.2-2.1-0.2-3.5-0.2c-7.3,0-12.4,5.4-13.8,13.1c-0.2,1.4-0.4,3.2-0.4,4.8v30.2h-10.3V44.1z"/>
	<path class="st0" d="M553.3,52.5h0.2c1.4-2,3.3-4.4,4.9-6.4l16.7-19.6h12.3l-21.8,23.3l24.9,33.4H578L558.6,56l-5.3,5.9v21.3h-10.2
		V0h10.2V52.5z"/>
	<path class="st0" d="M631.1,49.3c0.1-6.4-2.7-16.6-14.3-16.6c-10.5,0-15,9.5-15.8,16.6H631.1z M600.9,56.7
		c0.2,13.9,9,19.7,19.4,19.7c7.4,0,11.9-1.3,15.7-2.9l1.9,7.4c-3.6,1.6-10,3.6-19,3.6c-17.4,0-27.9-11.6-27.9-28.7
		c0-17.1,10.1-30.4,26.6-30.4c18.6,0,23.4,16.2,23.4,26.6c0,2.1-0.1,3.6-0.4,4.8H600.9z"/>
	<path class="st0" d="M663.2,12.9v13.6H678v7.8h-14.8v30.6c0,7,2,11,7.7,11c2.8,0,4.5-0.2,6-0.7l0.5,7.8c-2,0.7-5.2,1.4-9.1,1.4
		c-4.8,0-8.7-1.6-11.1-4.3c-2.8-3.2-4-8.2-4-14.9V34.3h-8.8v-7.8h8.8V15.9L663.2,12.9z"/>
	<path class="st0" d="M685.2,72.7c3.2,1.9,8.5,4,13.7,4c7.4,0,10.9-3.6,10.9-8.4c0-4.9-2.9-7.5-10.4-10.3
		c-10.3-3.7-15.1-9.3-15.1-16c0-9.1,7.5-16.6,19.6-16.6c5.7,0,10.8,1.5,13.8,3.5l-2.5,7.5c-2.2-1.4-6.3-3.4-11.6-3.4
		c-6.1,0-9.4,3.5-9.4,7.7c0,4.7,3.3,6.8,10.7,9.7c9.7,3.6,14.9,8.5,14.9,17c0,10.1-7.8,17.1-21.1,17.1c-6.2,0-11.9-1.6-15.9-4
		L685.2,72.7z"/>
</g>
</svg>
