<?xml version="1.0" encoding="utf-8"?>
<!-- Generator: Adobe Illustrator 19.1.0, SVG Export Plug-In . SVG Version: 6.00 Build 0)  -->
<svg version="1.1" id="Layer_1" xmlns="http://www.w3.org/2000/svg" xmlns:xlink="http://www.w3.org/1999/xlink" x="0px" y="0px"
	 viewBox="0 0 505.8 112.5" style="enable-background:new 0 0 505.8 112.5;" xml:space="preserve">
<style type="text/css">
	.st0{fill:#CC003D;}
</style>
<g>
	<path class="st0" d="M407.1,34.9c0-9.8,10.2-9.8,10.2-9.8h15.3h73.1V0h-73.1h-9.9C379,0,380,34.4,380,34.4v13.2v64.9h27.1V75.1
		h84.7V50h-84.7v-2.4V34.9z"/>
	<path class="st0" d="M322.2,0h-9.8h-0.1h-13h-0.7h-9.2c-13.6,0-22.9,3.3-29.2,7.9C254,3.3,244.7,0,231.1,0h-7.9h-15.7h-9.9
		c-43.8,0-42.8,34.4-42.8,34.4v13.2v64.9h27.1V47.6V34.9c0-9.8,10.2-9.8,10.2-9.8h15.3h15.7h13.3c0,0,10.2,0,10.2,9.8v12.8h0v64.9
		h27.1V47.6h0V34.9c0-9.8,10.2-9.8,10.2-9.8h14.6h0.7h13h0.1h15.3c0,0,10.2,0,10.2,9.8v12.8v64.9H365V47.6V34.4
		C365,34.4,366,0,322.2,0"/>
	<path class="st0" d="M113.5,77.8c0,9.8-10.2,9.8-10.2,9.8H88H52.6H37.3c0,0-10.2,0-10.2-9.8v-9.7V65V47.6V34.9
		c0-9.8,10.2-9.8,10.2-9.8h15.3H88h0.2h15.2c0,0,10.2,0,10.2,9.8v12.8V65v3.1V77.8z M140.6,68.1V65V47.6V34.4c0,0,1-34.4-42.8-34.4
		h-9.7H88H52.6h-9.9C-1,0,0,34.4,0,34.4v13.2V65v3.1v10.2c0,0-1,34.4,42.8,34.4h9.9H88h0.2h9.7c43.8,0,42.8-34.4,42.8-34.4V68.1z"/>
</g>
</svg>
