<?xml version="1.0" encoding="utf-8"?>
<!-- Generator: Adobe Illustrator 19.1.0, SVG Export Plug-In . SVG Version: 6.00 Build 0)  -->
<svg version="1.1" id="Layer_1" xmlns="http://www.w3.org/2000/svg" xmlns:xlink="http://www.w3.org/1999/xlink" x="0px" y="0px"
	 viewBox="0 0 55.7 55.7" style="enable-background:new 0 0 55.7 55.7;" xml:space="preserve">
<style type="text/css">
	.st0{clip-path:url(#SVGID_2_);fill:#FF5000;}
</style>
<g>
	<defs>
		<rect id="SVGID_1_" x="0" y="0" width="55.8" height="55.8"/>
	</defs>
	<clipPath id="SVGID_2_">
		<use xlink:href="#SVGID_1_"  style="overflow:visible;"/>
	</clipPath>
	<path class="st0" d="M28,54.1C13.5,54.1,1.7,42.4,1.6,28S13.3,1.7,27.7,1.6S54,13.3,54.1,27.7C54.1,42.2,42.4,54,28,54.1 M27.7,0
		C12.3,0-0.1,12.6,0,28s12.6,27.8,28,27.8s27.8-12.6,27.8-28C55.7,12.3,43.1-0.1,27.7,0"/>
	<path class="st0" d="M39,35.2c0.3,0,0.5,0.2,0.5,0.5l0,5c0,0.3-0.2,0.5-0.5,0.5l-2.3,0c-3.2,0-5.8-2.6-5.8-5.8l-0.1-15.4
		c0-3.2,2.6-5.8,5.8-5.8l2.2,0c0.3,0,0.5,0.2,0.5,0.5l0,5c0,0.3-0.2,0.5-0.5,0.5l-2.3,0c-0.7,0-1.3,0.6-1.3,1.4l0,1.9l0,1.1l0,9.1
		c0,0.7,0.6,1.3,1.4,1.3L39,35.2z M26.2,30.2l0-4.9l3.1,0l0,4.8L26.2,30.2z M18.9,41.4l-2.3,0c-0.3,0-0.5-0.2-0.5-0.5l0-5
		c0-0.3,0.2-0.5,0.5-0.5l2.3,0c0.7,0,1.3-0.6,1.3-1.3l-0.1-12.1c0-0.7-0.6-1.3-1.3-1.3l-2.2,0c-0.3,0-0.5-0.2-0.5-0.5l0-5
		c0-0.3,0.2-0.5,0.5-0.5l2.2,0c3.2,0,5.8,2.6,5.8,5.8l0.1,15.4C24.7,38.7,22.1,41.4,18.9,41.4 M46.8,23.6l-9.9,0l0-1.7l2,0
		c1.2,0,2.1-1,2.1-2.1l0-5c0-1.2-1-2.1-2.1-2.1l-2.2,0c-4.1,0-7.4,3.3-7.3,7.4l0,3.5l-3.1,0l0-3.5c0-4.1-3.3-7.4-7.4-7.3l-2.2,0
		c-1.2,0-2.1,1-2.1,2.1l0,5c0,1.2,1,2.1,2.1,2.1l2,0l0,8.2l-9.8,0c-0.4,0-0.7-0.3-0.7-0.7l0-3.4c0-0.4,0.3-0.7,0.7-0.7l3.3,0
		L10.5,27c-0.3,0.3-0.3,0.8,0,1.2c0.2,0.2,0.4,0.2,0.6,0.2c0.2,0,0.4-0.1,0.6-0.2l3-3c0,0,0,0,0,0c0.2-0.2,0.2-0.4,0.2-0.6
		c0-0.2-0.1-0.4-0.2-0.6c0,0,0,0,0,0l-3-2.9c-0.3-0.3-0.8-0.3-1.2,0c-0.3,0.3-0.3,0.8,0,1.2l1.7,1.6l-3.4,0c-1.3,0-2.4,1.1-2.4,2.4
		l0,3.4c0,1.3,1.1,2.4,2.4,2.4l9.8,0l0,1.8l-2,0c-1.2,0-2.1,1-2.1,2.1l0,5c0,1.2,1,2.1,2.1,2.1l2.3,0c4.1,0,7.4-3.3,7.3-7.4l0-3.7
		l3.1,0l0,3.7c0,4.1,3.3,7.4,7.4,7.3l2.3,0c1.2,0,2.1-1,2.1-2.1l0-5c0-1.2-1-2.1-2.1-2.1l-2,0l0-8.3l9.9,0c0.4,0,0.7,0.3,0.7,0.7
		l0,3.4c0,0.4-0.3,0.7-0.7,0.7l-3.4,0l1.6-1.6c0.3-0.3,0.3-0.8,0-1.2c-0.3-0.3-0.8-0.3-1.2,0l-2.9,3c0,0,0,0,0,0
		c-0.2,0.2-0.2,0.4-0.2,0.6c0,0.2,0.1,0.4,0.2,0.6c0,0,0,0,0,0l3,3c0.2,0.2,0.4,0.2,0.6,0.2c0.2,0,0.4-0.1,0.6-0.2
		c0.3-0.3,0.3-0.8,0-1.2l-1.7-1.7l3.4,0c1.3,0,2.4-1.1,2.4-2.4l0-3.4C49.2,24.7,48.2,23.6,46.8,23.6"/>
</g>
</svg>
